<svg width="21" height="32" viewBox="0 0 21 32" fill="none" xmlns="http://www.w3.org/2000/svg">
<path d="M13.6949 9.84467C13.6949 5.27044 11.4419 1.31066 9.76923 0.0134859C9.76923 0.0134859 9.63269 -0.0547863 9.63269 0.115894C9.49615 8.99127 4.95605 11.3808 2.46412 14.6237C-3.27074 22.0995 2.08862 30.2922 7.51625 31.8283C10.5544 32.6817 6.7994 30.3263 6.32149 25.3766C5.74118 19.3686 13.6949 14.7944 13.6949 9.84467Z" fill="white"/>
<path d="M5.57281 0.0256023C5.53867 -0.00853376 5.50454 -0.00853376 5.4704 0.0256023C5.33386 1.15209 4.20736 3.54162 2.77365 5.72633C-2.14194 13.168 0.657214 16.7523 2.22747 18.6639C3.14915 19.7904 2.22747 18.6639 4.51459 17.5374C4.68527 17.435 8.95228 15.0455 9.43018 9.61784C9.87395 4.29261 6.6993 0.981412 5.57281 0.0256023Z" transform="translate(10.75 12.8594)" fill="#2EA7E0"/>
</svg>
