<svg xmlns="http://www.w3.org/2000/svg" width="80" height="80" viewBox="0 0 81 81"><defs><linearGradient id="a" x1="50.001%" x2="50.001%" y1="1.631%" y2="98.545%"><stop stop-color="#FF1B2D" offset="30%"/><stop stop-color="#FA1A2C" offset="43.8%"/><stop stop-color="#ED1528" offset="59.4%"/><stop stop-color="#D60E21" offset="75.8%"/><stop stop-color="#B70519" offset="92.7%"/><stop stop-color="#A70014" offset="100%"/></linearGradient><linearGradient id="b" x1="49.996%" x2="49.996%" y1=".853%" y2="99.607%"><stop stop-color="#9C0000" offset="0%"/><stop stop-color="#FF4B4B" offset="70%"/></linearGradient></defs><path fill="url(#a)" d="M26.967 62.853c-4.444-5.246-7.323-13.003-7.52-21.707v-1.894c.196-8.704 3.075-16.46 7.52-21.707 5.766-7.49 14.34-12.237 23.912-12.237 5.886 0 11.396 1.798 16.11 4.925C59.913 3.903 50.582.04 40.35.003L40.2 0C17.997 0 0 17.998 0 40.2c0 21.557 16.972 39.15 38.285 40.15.635.03 1.273.048 1.915.048 10.292 0 19.678-3.87 26.79-10.23-4.712 3.125-10.22 4.923-16.11 4.923-9.573 0-18.146-4.746-23.913-12.235z"/><path fill="url(#b)" d="M26.967 17.546c3.688-4.354 8.454-6.98 13.66-6.98 11.7 0 21.188 13.268 21.188 29.634s-9.486 29.634-21.19 29.634c-5.204 0-9.97-2.626-13.657-6.98 5.767 7.49 14.34 12.237 23.913 12.237 5.89 0 11.4-1.795 16.11-4.92C75.22 62.81 80.4 52.11 80.4 40.2c0-11.908-5.18-22.605-13.406-29.966C62.28 7.107 56.77 5.308 50.88 5.308c-9.573 0-18.146 4.75-23.913 12.238z"/></svg>